# xmcd CD database file
#
# Track frame offsets:
#	150
#	18171
#	37730
#	59201
#	83601
#	105666
#	127429
#	154807
#	173018
#	200392
#	213552
#
# Disc length: 3044 seconds
#
# Revision: 0
# Processed by: cddbd v1.5.1PL2 Copyright (c) Steve Scherf et al.
# Submitted via: CDex 1.51
#
DISCID=930be20b
DTITLE=Rory Gallagher - Photo Finish
DYEAR=1998
DGENRE=Blues
TTITLE0=Shin Kicker
TTITLE1=Brute Force and Ignorance
TTITLE2=Cruise On Out
TTITLE3=Cloak and Digger
TTITLE4=Overnight Bag
TTITLE5=Shadow Play
TTITLE6=The Mississippi Shaks
TTITLE7=The Last Of The Independants
TTITLE8=Fuel To The Fire
TTITLE9=Early Warning
TTITLE10=Juke Box Annie
EXTD=YEAR: 1998
EXTT0=
EXTT1=
EXTT2=
EXTT3=
EXTT4=
EXTT5=
EXTT6=
EXTT7=
EXTT8=
EXTT9=
EXTT10=
PLAYORDER=
